<svg xmlns="http://www.w3.org/2000/svg" xmlns:xlink="http://www.w3.org/1999/xlink" width="285.214" height="56.71" viewBox="0 0 285.214 56.71"><defs><clipPath id="clip-path"><rect id="Rechteck_1" data-name="Rechteck 1" width="285.214" height="56.71" transform="translate(0 0)" fill="none"></rect></clipPath></defs><g id="Hermes-systeme-Logo" transform="translate(0 0)" opacity="1"><path id="Pfad_34" data-name="Pfad 34" d="M21.865,15.438l-8.382,8.381L5.1,15.438H0v11.8H26.965v-11.8ZM7.623,13.752l5.86,5.86,5.859-5.86-5.859-5.86ZM0,.27v11.8H5.1l8.383-8.382,8.382,8.382h5.1V.27Z" fill="#e95a00"></path><g id="Gruppe_10" data-name="Gruppe 10"><g id="Gruppe_9" data-name="Gruppe 9" clip-path="url(#clip-path)"><path id="Pfad_35" data-name="Pfad 35" d="M42.215,27.511V0h6.764V10.471H66.226V0h6.7V27.511h-6.7V15.934H48.979V27.511Zm183.178-5.137,24.724,0V16.064H232.3q-4.231,0-5.727-1.381t-1.495-5.128V6.485q0-3.72,1.495-5.1T232.3,0l23.037,0c-.008,0,0,4.957,0,4.941H231.126v5.788h17.91q4.214,0,5.671,1.35t1.459,5.129V21q0,3.778-1.491,5.144t-5.639,1.365H225.391c.007,0,0-5.179,0-5.138m-34.106,5.137V0h28.6V4.878H198.051v5.984h18.81v4.747h-18.81v6.763h22.165v5.139Zm-42.278,0V0h5.142L167.3,15.218,180.154,0h5.4V27.511h-6.243V10.243L167.937,23.269h-1.3L154.993,10.242v17.27Zm-70.138,0V0h28.6V4.878H85.634v5.984h18.81v4.747H85.634v6.763H107.8v5.139Zm34.321,0V0h24.139q3.39,0,4.912,1.258a5.022,5.022,0,0,1,1.521,4.092v6.469a4.891,4.891,0,0,1-1.521,4.044,6.336,6.336,0,0,1-3.935,1.242h-.778l6.413,10.406H135.95L129.469,17.1h-9.643V27.511ZM134.474,4.748H119.826v7.609h14.648a4.089,4.089,0,0,0,2.4-.507,2.045,2.045,0,0,0,.65-1.712V6.967a2.045,2.045,0,0,0-.65-1.712,4.089,4.089,0,0,0-2.4-.507M277.251,44.834c.19-2.646,1.54-4.373,3.4-4.373,1.808,0,3.023,1.674,3.158,4.373Zm7.855,1.107c-.054-4.184-1.673-6.559-4.481-6.559-2.834,0-4.616,2.51-4.616,6.505,0,4.1,1.89,6.64,4.913,6.64,1.835,0,3.077-.864,4.292-3l-.863-.567c-1.026,1.755-2.053,2.483-3.455,2.483a3.548,3.548,0,0,1-3.294-2.942,11.509,11.509,0,0,1-.378-2.564ZM259.274,39.57H258.06V52.338h1.214v-9.5c1.727-1.89,2.618-2.484,3.779-2.484a1.857,1.857,0,0,1,1.835,1.431A8.778,8.778,0,0,1,265,43.593v8.745h1.214v-9.5c1.593-1.809,2.672-2.484,3.941-2.484a1.965,1.965,0,0,1,1.917,1.512,7.356,7.356,0,0,1,.161,2.078v8.4h1.215V43.565a5.733,5.733,0,0,0-.539-2.969,3.146,3.146,0,0,0-2.619-1.323c-1.376,0-2.78.865-4.184,2.537a2.733,2.733,0,0,0-2.779-2.537,4.282,4.282,0,0,0-2.809,1.215,4.155,4.155,0,0,0-1.241,1.322ZM247.5,44.834c.188-2.646,1.538-4.373,3.4-4.373,1.808,0,3.023,1.674,3.158,4.373Zm7.853,1.107c-.053-4.184-1.673-6.559-4.48-6.559-2.835,0-4.616,2.51-4.616,6.505,0,4.1,1.889,6.64,4.912,6.64,1.836,0,3.079-.864,4.293-3l-.864-.567c-1.026,1.755-2.052,2.483-3.455,2.483a3.549,3.549,0,0,1-3.294-2.942,11.518,11.518,0,0,1-.377-2.564ZM242.917,34.955H241.7V39.57h-1.971v1.108H241.7v8.313c.026,1.916.053,2.24.269,2.7a2.259,2.259,0,0,0,2.078.972,8.9,8.9,0,0,0,1.674-.216V51.393a8.514,8.514,0,0,1-1.457.189,1.23,1.23,0,0,1-1.3-.944c-.026-.216-.026-.351-.053-1.377V40.678h2.807V39.57h-2.807Zm-4.4,6.451a4.6,4.6,0,0,0-3.913-2.024c-2.268,0-3.888,1.376-3.888,3.319,0,1.674,1.188,2.727,4.211,3.7,2.026.649,2.727,1.3,2.727,2.592a2.731,2.731,0,0,1-2.969,2.456,3.915,3.915,0,0,1-3.428-2.051l-.972.621a4.841,4.841,0,0,0,4.373,2.51c2.375,0,4.211-1.593,4.211-3.672,0-1.835-.756-2.59-3.645-3.616-2.644-.972-3.293-1.512-3.293-2.7a2.309,2.309,0,0,1,2.592-2.159,3.7,3.7,0,0,1,3.1,1.726ZM229.8,39.57h-1.3l-2.915,9.151a1.415,1.415,0,0,0-.108.324,9.06,9.06,0,0,0-.377,1.187l-.27-.728a3.611,3.611,0,0,0-.244-.7l-3.13-9.232H220.08l4.4,12.336c-.459,1.3-.594,1.593-.729,1.916-.593,1.3-1.3,1.836-2.429,1.836a2.206,2.206,0,0,1-.891-.189l-.135,1.107a7.762,7.762,0,0,0,1.133.135c1.836,0,3.051-1.269,4.049-4.211Zm-10.736-1.241c-.756-2.808-2.672-4.373-5.317-4.373-2.943,0-4.967,1.917-4.967,4.643a4.5,4.5,0,0,0,1.674,3.617,16.313,16.313,0,0,0,3.671,1.646,8.932,8.932,0,0,1,2.564,1.241,3.546,3.546,0,0,1,1.269,2.727,3.785,3.785,0,0,1-3.942,3.725c-2.456,0-3.94-1.214-4.805-3.967l-1.187.431c.891,3.024,2.916,4.67,5.776,4.67,3.267,0,5.507-2.025,5.507-4.966a4.594,4.594,0,0,0-1.916-3.833,10.831,10.831,0,0,0-3.24-1.486c-2.941-1-4.022-2.051-4.022-3.887a3.422,3.422,0,0,1,3.645-3.427c2,0,3.347,1.187,4.049,3.59Z" fill="#c8d6e5" fill-rule="evenodd"></path></g></g></g></svg>